PathFileType	4	(X/Y/Z)	Patient4_TMGait_0pt4_02_left_22.trc.trc
DataRate	CameraRate	NumFrames	NumMarkers	Units	OrigDataRate	OrigDataStartFrame	OrigNumFrames
74.866310160428	74.866310160428	4	33	mm	74.866310160428	18	       141
Frame#	Time	Sacral			L.Shoulder			Chest			R.Shoulder			Neck			R.ASIS			L.ASIS			R.Thigh.Superior			R.Thigh.Lateral			R.Thigh.Inferior			R.Patella			L.Thigh.Superior			L.Thigh.Lateral			L.Thigh.Inferior			L.Patella			L.Shank.Superior			L.Shank.Lateral			L.Shank.Inferior			R.Shank.Superior			R.Shank.Lateral			R.Shank.Inferior			R.Heel			R.Midfoot.Superior			R.Midfoot.Lateral			R.Toe			L.Heel			L.Midfoot.Lateral			L.Midfoot.Superior			L.Toe			L.Elbow			L.Wrist			R.Elbow			R.Wrist			
		X1	Y1	Z1	X2	Y2	Z2	X3	Y3	Z3	X4	Y4	Z4	X5	Y5	Z5	X6	Y6	Z6	X7	Y7	Z7	X8	Y8	Z8	X9	Y9	Z9	X10	Y10	Z10	X11	Y11	Z11	X12	Y12	Z12	X13	Y13	Z13	X14	Y14	Z14	X15	Y15	Z15	X16	Y16	Z16	X17	Y17	Z17	X18	Y18	Z18	X19	Y19	Z19	X20	Y20	Z20	X21	Y21	Z21	X22	Y22	Z22	X23	Y23	Z23	X24	Y24	Z24	X25	Y25	Z25	X26	Y26	Z26	X27	Y27	Z27	X28	Y28	Z28	X29	Y29	Z29	X30	Y30	Z30	X31	Y31	Z31	X32	Y32	Z32	X33	Y33	Z33	

18	29.707071428571	909.990183522684	1008.730816033715	547.661376995026	1065.289676231440	1435.939470782194	348.567177782838	1193.673566931293	1362.586077470290	487.188505241985	1146.948160082541	1434.722173857551	674.645027040667	1081.463174417874	1496.058426921014	504.926391813069	1149.842619418572	939.612819389591	630.479784916671	1099.471132606789	964.250292563413	359.324195400561	1157.628179496524	731.536610362189	597.736263871448	1070.045256640389	630.292147723863	668.534108664731	1128.019546015043	571.099887192454	581.481849640818	1116.386485742137	486.338698518582	588.322103704684	1173.216314380387	773.729947458011	380.381181508335	1117.428791088305	649.202121901906	303.072083993338	1221.282688731046	585.753405396015	359.044281945006	1247.723839435695	526.490992159096	354.236328905694	1235.129827617611	458.100840415174	341.834420496329	1178.766258753324	325.634567608966	287.078592776042	1275.004869610561	231.966369795152	336.633890017877	1082.938364463313	399.230034754971	596.725224378807	1008.273373019051	299.740364486435	663.187657491614	1038.655431284137	203.370881065689	594.730879838338	895.696681586196	43.212920306605	565.502342573685	1066.767855563149	96.384721460463	600.356591667606	979.277226080411	36.907477872991	640.430179492109	1187.622213245562	43.382171377653	627.207827426710	1206.106382388118	47.499031177697	372.834984382860	1278.327532224756	56.186687140002	291.734565331137	1344.360820111371	138.189707361203	311.430765580773	1478.675883591106	117.717991986414	282.789178765786	937.245374306223	1101.825627927083	259.251273232469	932.326687439479	839.948249636607	253.577237128555	1255.797194545439	1106.304822655758	785.632763651388	1488.182851230329	1105.324305836733	685.318745591365	
19	29.720428571429	910.769577734852	1008.056628940242	545.924699508479	1065.175516643724	1435.368940664847	346.686063893644	1193.827676842684	1362.152556835523	485.135116410683	1147.134005722959	1434.107395523995	672.651243018195	1081.445066612845	1495.419431345930	503.044163480444	1150.706348736568	939.145490135418	628.905555851030	1100.351132391764	963.180099508431	357.652437078330	1157.166856139625	730.691612720309	596.720971088228	1068.550131718661	630.005483320294	667.581571643911	1126.108291557240	570.195355312428	580.886422418956	1113.793277417435	485.441700352582	587.730967447431	1174.137296318134	772.447844881904	378.829985931387	1116.985013232406	647.050278522305	303.249710788152	1221.219183818143	583.871691376644	358.427997055818	1247.250732728396	523.936376085057	354.077632619209	1233.599143178211	455.184040645626	342.495459765712	1174.874340486751	323.338961303517	288.974331541567	1269.761565816524	228.493036896922	338.520463048768	1079.705743892219	398.685491721347	596.211319294087	1004.384343359220	299.795266330501	662.881556227575	1034.027445605410	203.085624639746	594.534245602533	890.311392404133	43.247879911385	565.501292410657	1061.408444739333	96.303475905368	600.383951750168	973.879251227879	36.855533184485	640.472026622742	1182.255114371063	43.211071679522	627.245942198575	1197.879457669939	46.216167555726	376.230141163091	1269.404667255499	53.243557101225	294.409350250754	1337.531309092692	133.341283510240	313.504185616302	1470.880643365229	109.607056031356	283.492113638236	936.618229779548	1101.499629616217	257.759769733124	933.436119207985	839.467324958382	252.384661862755	1257.425930495382	1105.507809518243	781.501828509916	1488.772688348777	1109.508396331786	679.502215034514	
20	29.733785714286	911.727889864038	1007.210254217475	543.890962580747	1065.122443898242	1434.674992597605	344.564498456772	1193.971216825485	1361.717059101466	482.969999104591	1147.073924507961	1433.445500402558	670.506665788885	1081.337512682803	1494.697025334948	500.951690693409	1151.731747799957	938.637362669234	627.316197721890	1101.603409490013	961.968978545933	355.933239773394	1156.913191591375	729.779787362822	595.810017768817	1067.055476523926	629.714102266713	666.582879281763	1124.282414245473	569.241136074834	580.342778174461	1111.225724380552	484.505011692726	587.135257688900	1175.302424573592	770.821342922429	377.380936765926	1116.789056225935	644.760385497475	303.362308107338	1221.187434414284	581.721381775301	358.022501501523	1246.697308060449	520.967204441545	354.116006057270	1231.831082247225	451.818276682017	343.283071009871	1170.368821676320	320.781881299171	290.932664486525	1263.552876098919	224.452923238620	340.559566545397	1076.520193790885	398.119393508878	595.684549121566	1000.496508826395	299.862931084366	662.538882651511	1029.412960408053	202.801157439080	594.337045457996	884.930484609181	43.270003166307	565.511962502350	1056.043116010116	96.220187312463	600.414638481925	968.481905657810	36.795359178407	640.513526701434	1176.881902948136	43.038304971169	627.303419789156	1188.019395891990	44.754341326341	379.587344041836	1258.938345160193	49.997740100606	297.114507720393	1329.473159592274	127.763751376476	315.883359631503	1461.769391321911	100.209781244996	284.570875869897	936.475637344335	1100.893583271536	255.893075281849	935.493163592584	838.708973676329	250.762482597031	1258.719212699976	1104.661048599871	777.411273354913	1489.076807483773	1112.591135218985	673.887481663206	
21	29.747142857143	912.843785839710	1006.237404717735	541.583253510986	1065.163495459689	1433.875491779124	342.194064691451	1194.129611769217	1361.291627420519	480.687524766575	1146.804620675687	1432.767411339504	668.202799182899	1081.176388938069	1493.919182912059	498.634796692218	1152.897178258691	938.090327789113	625.705919856753	1103.182257087158	960.671402307190	354.178477454700	1156.868076359471	728.809985853885	594.977529906979	1065.586180471956	629.421384249850	665.511507730617	1122.562287957827	568.248953716187	579.807907646047	1108.717967920376	483.534649649383	586.491729743266	1176.641835634012	768.884624651362	376.048972191425	1116.768014385406	642.424197214991	303.365804748719	1221.107511628650	579.387602129648	357.824187020273	1245.972612704087	517.736071400317	354.360020657191	1229.851310839570	448.189190175679	344.133341436835	1165.509402330744	318.085759862056	292.827822806471	1256.765197729037	220.118582039854	342.643092312708	1073.403508781802	397.532195658319	595.111302187502	996.635504620299	299.956864298909	662.141615715317	1024.826065614658	202.526562572352	594.125983849825	879.556163507572	43.294262380562	565.541261130499	1050.677262762950	96.141900298090	600.445561545721	963.089426749289	36.733556695158	640.552720875168	1171.504748649351	42.861163909207	627.375827790667	1177.190480955037	43.254777212375	382.722588757869	1247.641334764016	46.711972954836	299.716341521401	1320.723054454921	121.851900856796	318.477971403559	1451.943738402585	90.172026353920	286.044166021340	936.840055854481	1100.020127801742	253.655388860357	938.445920232160	837.698441327358	248.702433541869	1259.666167535758	1103.788088498562	773.401358275741	1489.135104947897	1114.560582356618	668.499379853273	
